#define alert_width 64
#define alert_height 64
static unsigned char alert_bits[] PROGMEM = {
   0x00, 0x00, 0x00, 0x00, 0x00, 0x00, 0x00, 0x00, 0x00, 0x00, 0x00, 0x00,
   0x00, 0x00, 0x00, 0x00, 0x00, 0x00, 0x00, 0xe0, 0x07, 0x00, 0x00, 0x00,
   0x00, 0x00, 0x00, 0xf0, 0x0f, 0x00, 0x00, 0x00, 0x00, 0x00, 0x00, 0xf8,
   0x1f, 0x00, 0x00, 0x00, 0x00, 0x00, 0x00, 0x78, 0x1e, 0x00, 0x00, 0x00,
   0x00, 0x00, 0x00, 0x3c, 0x3c, 0x00, 0x00, 0x00, 0x00, 0x00, 0x00, 0x3c,
   0x78, 0x00, 0x00, 0x00, 0x00, 0x00, 0x00, 0x1e, 0x78, 0x00, 0x00, 0x00,
   0x00, 0x00, 0x00, 0x0f, 0xf0, 0x00, 0x00, 0x00, 0x00, 0x00, 0x00, 0x0f,
   0xf0, 0x00, 0x00, 0x00, 0x00, 0x00, 0x80, 0x07, 0xe0, 0x01, 0x00, 0x00,
   0x00, 0x00, 0x80, 0x07, 0xe0, 0x01, 0x00, 0x00, 0x00, 0x00, 0xc0, 0x03,
   0xc0, 0x03, 0x00, 0x00, 0x00, 0x00, 0xc0, 0x03, 0xc0, 0x03, 0x00, 0x00,
   0x00, 0x00, 0xe0, 0x01, 0x80, 0x07, 0x00, 0x00, 0x00, 0x00, 0xe0, 0x01,
   0x80, 0x07, 0x00, 0x00, 0x00, 0x00, 0xf0, 0x00, 0x00, 0x0f, 0x00, 0x00,
   0x00, 0x00, 0xf0, 0x00, 0x00, 0x0f, 0x00, 0x00, 0x00, 0x00, 0x78, 0x00,
   0x00, 0x1e, 0x00, 0x00, 0x00, 0x00, 0x3c, 0xe0, 0x07, 0x3c, 0x00, 0x00,
   0x00, 0x00, 0x3c, 0xe0, 0x07, 0x3c, 0x00, 0x00, 0x00, 0x00, 0x1e, 0xe0,
   0x07, 0x78, 0x00, 0x00, 0x00, 0x00, 0x1e, 0xe0, 0x07, 0x78, 0x00, 0x00,
   0x00, 0x00, 0x0f, 0xe0, 0x07, 0xf0, 0x00, 0x00, 0x00, 0x00, 0x0f, 0xe0,
   0x07, 0xf0, 0x00, 0x00, 0x00, 0x80, 0x07, 0xe0, 0x07, 0xe0, 0x01, 0x00,
   0x00, 0x80, 0x07, 0xe0, 0x07, 0xe0, 0x01, 0x00, 0x00, 0xc0, 0x03, 0xe0,
   0x07, 0xc0, 0x03, 0x00, 0x00, 0xc0, 0x03, 0xe0, 0x07, 0xc0, 0x03, 0x00,
   0x00, 0xe0, 0x01, 0xe0, 0x07, 0x80, 0x07, 0x00, 0x00, 0xe0, 0x01, 0xe0,
   0x07, 0x80, 0x07, 0x00, 0x00, 0xf0, 0x00, 0xe0, 0x07, 0x00, 0x0f, 0x00,
   0x00, 0xf0, 0x00, 0xe0, 0x07, 0x00, 0x1e, 0x00, 0x00, 0x78, 0x00, 0xe0,
   0x07, 0x00, 0x1e, 0x00, 0x00, 0x3c, 0x00, 0xe0, 0x07, 0x00, 0x3c, 0x00,
   0x00, 0x3c, 0x00, 0xe0, 0x07, 0x00, 0x3c, 0x00, 0x00, 0x1e, 0x00, 0xe0,
   0x07, 0x00, 0x78, 0x00, 0x00, 0x1e, 0x00, 0xe0, 0x07, 0x00, 0x78, 0x00,
   0x00, 0x0f, 0x00, 0xe0, 0x07, 0x00, 0xf0, 0x00, 0x00, 0x0f, 0x00, 0xe0,
   0x07, 0x00, 0xf0, 0x00, 0x80, 0x07, 0x00, 0xe0, 0x07, 0x00, 0xe0, 0x01,
   0x80, 0x07, 0x00, 0x00, 0x00, 0x00, 0xe0, 0x01, 0xc0, 0x03, 0x00, 0x00,
   0x00, 0x00, 0xc0, 0x03, 0xc0, 0x03, 0x00, 0x00, 0x00, 0x00, 0xc0, 0x03,
   0xe0, 0x01, 0x00, 0x00, 0x00, 0x00, 0x80, 0x07, 0xf0, 0x00, 0x00, 0x00,
   0x00, 0x00, 0x80, 0x0f, 0xf0, 0x00, 0x00, 0xe0, 0x07, 0x00, 0x00, 0x0f,
   0x78, 0x00, 0x00, 0xe0, 0x07, 0x00, 0x00, 0x1e, 0x78, 0x00, 0x00, 0xe0,
   0x07, 0x00, 0x00, 0x1e, 0x3c, 0x00, 0x00, 0xe0, 0x07, 0x00, 0x00, 0x3c,
   0x3c, 0x00, 0x00, 0xe0, 0x07, 0x00, 0x00, 0x3c, 0x1e, 0x00, 0x00, 0xe0,
   0x07, 0x00, 0x00, 0x78, 0x1e, 0x00, 0x00, 0x00, 0x00, 0x00, 0x00, 0x78,
   0x0e, 0x00, 0x00, 0x00, 0x00, 0x00, 0x00, 0x70, 0x0e, 0x00, 0x00, 0x00,
   0x00, 0x00, 0x00, 0x70, 0x0e, 0x00, 0x00, 0x00, 0x00, 0x00, 0x00, 0x70,
   0x0e, 0x00, 0x00, 0x00, 0x00, 0x00, 0x00, 0x70, 0x3e, 0x00, 0x00, 0x00,
   0x00, 0x00, 0x00, 0x7e, 0xfc, 0xff, 0xff, 0xff, 0xff, 0xff, 0xff, 0x7f,
   0xfc, 0xff, 0xff, 0xff, 0xff, 0xff, 0xff, 0x1f, 0xf0, 0xff, 0xff, 0xff,
   0xff, 0xff, 0xff, 0x0f, 0x00, 0x00, 0x00, 0x00, 0x00, 0x00, 0x00, 0x00,
   0x00, 0x00, 0x00, 0x00, 0x00, 0x00, 0x00, 0x00 };
